# xmcd
#
# Track frame offsets: 
#        150
#        32573
#        55054
#        81646
#        100448
#        117177
#        141753
#        162203
#        190791
#        209956
#        234710
#        250059
#
# Disc length: 4439 seconds
#
# Revision: 1
# Processed by: cddbd v1.5.2PL0 Copyright (c) Steve Scherf et al.
# Submitted via: ExactAudioCopy v1.0b1
#
DISCID=ac11550c
DTITLE=Rundek, Darko and Cargo Trio - Darko Rundek
DYEAR=10
DGENRE=
TTITLE0=Kurdistan
TTITLE1=U Borbi Sa Silama
TTITLE2=Sanjala Si Da Si Sretna
TTITLE3=Li-La
TTITLE4=Para Ljude Vara
TTITLE5=You're Think, You're Busy
TTITLE6=Sadimo Lan
TTITLE7=Plavi Avion
TTITLE8=Indijanska
TTITLE9=Ruskaja
TTITLE10=Znak
TTITLE11=Drina
EXTD=
EXTT0=
EXTT1=
EXTT2=
EXTT3=
EXTT4=
EXTT5=
EXTT6=
EXTT7=
EXTT8=
EXTT9=
EXTT10=
EXTT11=
PLAYORDER=
